<svg xmlns="http://www.w3.org/2000/svg" viewBox="0 0 1200 800" role="img" aria-label="BBQ themed illustration">
  <defs>
    <linearGradient id="bg" x1="0" x2="1">
      <stop offset="0%" stop-color="#1d1513"/>
      <stop offset="100%" stop-color="#532c1f"/>
    </linearGradient>
    <linearGradient id="smoke" x1="0" x2="1">
      <stop offset="0%" stop-color="#f8e7c2" stop-opacity="0.7"/>
      <stop offset="100%" stop-color="#f8e7c2" stop-opacity="0"/>
    </linearGradient>
  </defs>
  <rect width="1200" height="800" fill="url(#bg)"/>
  <g opacity="0.75">
    <ellipse cx="390" cy="170" rx="170" ry="80" fill="url(#smoke)"/>
    <ellipse cx="620" cy="150" rx="210" ry="90" fill="url(#smoke)"/>
  </g>
  <g>
    <rect x="180" y="470" width="840" height="180" rx="24" fill="#2a221d"/>
    <rect x="220" y="360" width="760" height="120" rx="18" fill="#8d422d"/>
    <g fill="#d39c57">
      <rect x="260" y="320" width="92" height="82" rx="12"/>
      <rect x="395" y="300" width="120" height="102" rx="12"/>
      <rect x="560" y="290" width="110" height="112" rx="12"/>
      <rect x="710" y="300" width="120" height="102" rx="12"/>
      <rect x="880" y="320" width="72" height="82" rx="12"/>
    </g>
    <g fill="#e4c98d">
      <circle cx="300" cy="260" r="42"/>
      <circle cx="460" cy="245" r="36"/>
      <circle cx="610" cy="235" r="40"/>
      <circle cx="760" cy="245" r="36"/>
      <circle cx="920" cy="260" r="42"/>
    </g>
  </g>
</svg>
